<svg height="100" width="100" xmlns="http://www.w3.org/2000/svg" viewBox="0 0 100 100"><path d="M80.935 60.03l9.479-10.055-9.492-10.043 1.758-13.706-13.582-2.548-6.636-12.118-12.484 5.919-12.49-5.903-6.619 12.125-13.58 2.566 1.774 13.703-9.476 10.054 9.49 10.044-1.76 13.705L30.9 76.321l6.634 12.119 12.483-5.92 12.491 5.904 6.62-12.127 13.578-2.565-.182-1.403-1.589-12.299zM50 76.5c-14.638 0-26.5-11.864-26.5-26.5S35.362 23.5 50 23.5c14.639 0 26.5 11.864 26.5 26.5S64.639 76.5 50 76.5z"/><path d="M50 28.5c-11.854 0-21.5 9.645-21.5 21.5S38.146 71.5 50 71.5 71.5 61.856 71.5 50 61.854 28.5 50 28.5zm-.429 31.461l-9.893-8.251-1.918-1.601 3.201-3.84 7.924 6.607 11.252-13.832 3.879 3.154-14.445 17.763z"/></svg>